name C:\Users\antoi\Documents\MyRepositories\upper-imu-dc\Results\main_tracking\Case_78\kinematics.mot
datacolumns 10
datarows 28
range 4.83000000 5.10000000
endheader 
time	clav_prot	clav_elev	scapula_abduction	scapula_elevation	scapula_upward_rot	scapula_winging	plane_elv	shoulder_elv	axial_rot	
          4.83000000	        -27.03181841	         -5.05325081	        -10.73150519	         -8.15811968	         27.32741053	          2.25676895	         76.80491192	         65.50366335	        -15.14876673	
          4.84000000	        -26.90681574	         -5.12085658	        -10.86396240	         -8.09998075	         26.80975010	          2.40519412	         76.58507460	         64.85481345	        -14.96454660	
          4.85000000	        -26.78833922	         -5.18894267	        -11.00104474	         -8.04263412	         26.29853765	          2.55232005	         76.35310743	         64.21154735	        -14.77194851	
          4.86000000	        -26.67627600	         -5.25751877	        -11.14269538	         -7.98610997	         25.79364364	          2.69819206	         76.10928978	         63.57454584	        -14.57235469	
          4.87000000	        -26.57048313	         -5.32662927	        -11.28884098	         -7.93044740	         25.29487452	          2.84288517	         75.85390176	         62.94445626	        -14.36719069	
          4.88000000	        -26.47078584	         -5.39634749	        -11.43937973	         -7.87569213	         24.80198604	          2.98649849	         75.58724144	         62.32188312	        -14.15788268	
          4.89000000	        -26.37698471	         -5.46677774	        -11.59416003	         -7.82190807	         24.31473082	          3.12914537	         75.30965092	         61.70740890	        -13.94581029	
          4.90000000	        -26.28887259	         -5.53803782	        -11.75302568	         -7.76916156	         23.83283965	          3.27094808	         75.02148058	         61.10156668	        -13.73228348	
          4.91000000	        -26.20621226	         -5.61024151	        -11.91578576	         -7.71750532	         23.35601543	          3.41203275	         74.72311095	         60.50477108	        -13.51849927	
          4.92000000	        -26.12875244	         -5.68350615	        -12.08222243	         -7.66699055	         22.88395869	          3.55252625	         74.41495069	         59.91736276	        -13.30552971	
          4.93000000	        -26.05623410	         -5.75794954	        -12.25208909	         -7.61766937	         22.41638779	          3.69255014	         74.09742820	         59.33962028	        -13.09431045	
          4.94000000	        -25.98838262	         -5.83368376	        -12.42510414	         -7.56958823	         21.95303079	          3.83222006	         73.77098183	         58.77175092	        -12.88564444	
          4.95000000	        -25.92490218	         -5.91080477	        -12.60094491	         -7.52277952	         21.49362400	          3.97164182	         73.43604660	         58.21389015	        -12.68020588	
          4.96000000	        -25.86547716	         -5.98940009	        -12.77924775	         -7.47726779	         21.03791303	          4.11091453	         73.09303994	         57.66611149	        -12.47855351	
          4.97000000	        -25.80977323	         -6.06954913	        -12.95960654	         -7.43307149	         20.58565828	          4.25012957	         72.74235387	         57.12843809	        -12.28113636	
          4.98000000	        -25.75743929	         -6.15132080	        -13.14157332	         -7.39020255	         20.13664013	          4.38936831	         72.38435043	         56.60085116	        -12.08829991	
          4.99000000	        -25.70811174	         -6.23477583	        -13.32466501	         -7.34866890	         19.69065978	          4.52870282	         72.01935724	         56.08329514	        -11.90029354	
          5.00000000	        -25.66141594	         -6.31995509	        -13.50836267	         -7.30846816	         19.24754915	          4.66818852	         71.64766479	         55.57567572	        -11.71725634	
          5.01000000	        -25.61697120	         -6.40688368	        -13.69212038	         -7.26959102	         18.80716950	          4.80786612	         71.26952100	         55.07785920	        -11.53922053	
          5.02000000	        -25.57439319	         -6.49556043	        -13.87536795	         -7.23201526	         18.36941847	          4.94775545	         70.88513027	         54.58966651	        -11.36609625	
          5.03000000	        -25.53329920	         -6.58595241	        -14.05751978	         -7.19570287	         17.93423300	          5.08785221	         70.49465583	         54.11086724	        -11.19766231	
          5.04000000	        -25.49331660	         -6.67799261	        -14.23798941	         -7.16059945	         17.50159113	          5.22812633	         70.09822799	         53.64117247	        -11.03356014	
          5.05000000	        -25.45408806	         -6.77155965	        -14.41619607	         -7.12662218	         17.07152403	          5.36851017	         69.69596193	         53.18022337	        -10.87326214	
          5.06000000	        -25.41528360	         -6.86647773	        -14.59158620	         -7.09366060	         16.64411562	          5.50889833	         69.28797875	         52.72758430	        -10.71606718	
          5.07000000	        -25.37660380	         -6.96249219	        -14.76363228	         -7.06156346	         16.21952340	          5.64913208	         68.87442803	         52.28272782	        -10.56106220	
          5.08000000	        -25.33778711	         -7.05927073	        -14.93184989	         -7.03013866	         15.79797203	          5.78900132	         68.45550171	         51.84503762	        -10.40712116	
          5.09000000	        -25.29861021	         -7.15639260	        -15.09579600	         -6.99914743	         15.37976248	          5.92823782	         68.03143832	         51.41380594	        -10.25289196	
          5.10000000	        -25.25888856	         -7.25335485	        -15.25507123	         -6.96830850	         14.96526876	          6.06651898	         67.60251210	         50.98824122	        -10.09683090	
